<svg version="1.1" id="Svelte_Society" xmlns="http://www.w3.org/2000/svg" xmlns:xlink="http://www.w3.org/1999/xlink" x="0px"
	 y="0px" viewBox="0 0 400 400" style="enable-background:new 0 0 400 400;" xml:space="preserve"><style type="text/css">
	.st0{fill:#FFFFFF;}
	.st1{fill:#FF3E00;}
	.st2{fill:#FFFFFF;stroke:#000000;stroke-width:3;}
</style><g id="BG"><rect id="BG.frame" class="st0" width="400" height="400"/><circle id="BG.red" class="st1" cx="200" cy="200" r="200"/><circle id="BG.white" class="st2" cx="200" cy="201.8" r="144.4"/></g><g id="Text"><g id="Text.Society"><path id="Society.Y" class="st0" d="M345.9,271.4l20.7-3.4l10.1,3.8l1.8-4.9l-10.1-3.8l-13.2-16.2l-2.1,5.5l9.5,11.1l-0.1,0.3
			l-14.5,2.1L345.9,271.4z"/><path id="Society.T" class="st0" d="M313.1,320.2l6.3-6.4l17.5,17.2l3.6-3.7L323,310.1l6.3-6.4l-3.1-3.1L310,317.1L313.1,320.2z"
			/><path id="Society.E" class="st0" d="M268.5,374.8l17.1-8.1l-1.9-4l-12.4,5.8l-3.4-7.1l11.4-5.4l-1.9-4l-11.4,5.4l-3.4-7.1
			l12.3-5.8l-1.9-4l-17,8L268.5,374.8z"/><path id="Society.I" class="st0" d="M203.4,360.4h-5.2v28.9h5.2V360.4z"/><path id="Society.C" class="st0" d="M148.7,363c2.1-6.1-0.5-11.7-6.2-14.6c-6.7-3.5-14.3-1.2-18.6,7.2c-4.3,8.3-1.8,15.8,5,19.3
			c6.1,3.1,12.2,1.3,15.4-3.3l-4.7-2.4c-2.1,2.7-5.5,3.1-8.5,1.6c-4.2-2.1-5.5-6.8-2.5-12.7c3-5.8,7.6-7.5,11.8-5.3
			c3.1,1.6,4.7,4.6,3.6,8L148.7,363z"/><path id="Society.O" class="st0" d="M83.4,331.1c7.6-5.4,8.7-13.3,4.3-19.4c-4.4-6.2-12.2-7.6-19.8-2.1
			c-7.6,5.4-8.7,13.3-4.3,19.4C68,335.2,75.8,336.6,83.4,331.1z M80.3,326.9c-5.3,3.8-10.2,3.2-12.9-0.6c-2.7-3.8-1.8-8.6,3.6-12.4
			c5.3-3.8,10.2-3.2,12.9,0.6C86.7,318.3,85.7,323,80.3,326.9z"/><path id="Society.S" class="st0" d="M45.3,265.3l1.5,4.8c4.6-1.6,6.6-6.6,4.8-12.5c-1.8-5.8-6.5-9.1-11.4-7.5
			c-4,1.3-5.3,4.8-5,9.7l0.2,3.4c0.2,3.2-0.1,5.5-2.2,6.2c-2.4,0.7-4.6-1-5.7-4.2c-1-3.1-0.4-6,2.5-7.1l-1.6-4.9
			c-5.4,2-7.2,7-5.1,13.4c2.1,6.6,6.6,9.4,11.5,7.8c4.8-1.5,5.7-6.2,5.3-10.6l-0.2-2.8c-0.2-2.4,0-5.2,2.3-5.9
			c2.1-0.6,4.2,0.7,5.2,3.8C48.3,261.9,47.6,264.3,45.3,265.3z"/></g><g id="Text.Svelte"><path id="Svelte.E_1_" class="st0" d="M334.2,114.5l8.9,16.7l3.9-2.1l-6.4-12.1l7-3.7l5.9,11.1l3.9-2.1l-5.9-11.1l6.9-3.7l6.4,12
			l3.9-2.1l-8.9-16.6L334.2,114.5z"/><path id="Svelte.T" class="st0" d="M301.6,46.7l7.2,5.3l-14.5,19.7l4.2,3.1L312.9,55l7.2,5.3l2.6-3.5l-18.6-13.7L301.6,46.7z"/><path id="Svelte.L" class="st0" d="M222.8,43.5l17.8,2.8l0.7-4.3l-12.6-2l3.8-24.2l-5.2-0.8L222.8,43.5z"/><path id="Svelte.E" class="st0" d="M151.1,49.1l18.2-5.2l-1.2-4.2l-13.2,3.8l-2.2-7.6l12.1-3.5l-1.2-4.2l-12.1,3.5l-2.2-7.5
			l13-3.7l-1.2-4.2L143,21.5L151.1,49.1z"/><path id="Svelte.V" class="st0" d="M78.2,57.3l-4.3,3.8l26.8,14.8l4.8-4.3L93.9,43.2L89.6,47l9.5,22l-0.2,0.2L78.2,57.3z"/><path id="Svelte.S" class="st0" d="M43.1,108.1l2.2-4.5c-4.4-2.1-9.4,0.1-12.1,5.6c-2.7,5.4-1.7,11,2.9,13.3
			c3.7,1.8,7.2,0.3,10.4-3.4l2.2-2.6c2.1-2.4,3.9-3.9,5.9-2.9c2.2,1.1,2.6,3.9,1.1,7c-1.5,2.9-3.9,4.6-6.7,3.4l-2.3,4.6
			c5.2,2.4,10,0,13-6.1c3.1-6.2,1.8-11.3-2.8-13.6c-4.5-2.2-8.4,0.5-11.2,3.9L44,115c-1.6,1.9-3.6,3.7-5.8,2.6c-1.9-1-2.5-3.4-1-6.4
			C38.5,108.4,40.8,107.2,43.1,108.1z"/></g><g id="Text.Dots"><circle id="Dot.right" class="st0" cx="372.1" cy="188.9" r="4.5"/><circle id="Dot.left" class="st0" cx="26.1" cy="188.9" r="4.5"/></g></g><g id="Svelte_Logo"><path id="Svelte.stroke" class="st1" d="M275,121.1c-20.3-29.3-60.5-38-89.5-19.4l-51,32.7c-6.9,4.4-12.8,10.1-17.3,16.9
		c-4.5,6.8-7.6,14.4-9.1,22.5c-2.4,13.6-0.3,27.6,6.1,39.9c-4.4,6.7-7.3,14.2-8.7,22c-1.5,8.2-1.3,16.7,0.6,24.8
		c1.8,8.2,5.3,15.9,10.1,22.7c20.3,29.3,60.5,38,89.5,19.4l51-32.6c6.9-4.4,12.8-10.1,17.3-16.9c4.5-6.8,7.6-14.4,9.1-22.5
		c2.4-13.6,0.3-27.6-6.1-39.8c4.4-6.7,7.3-14.2,8.8-22c1.5-8.2,1.3-16.7-0.6-24.8c-1.8-8.2-5.3-15.9-10.1-22.7"/><path id="Svelte.fill" class="st0" d="M181.5,284.8c-8.1,2.1-16.6,1.6-24.4-1.2c-7.8-2.9-14.5-8-19.3-14.8c-2.9-4-5-8.6-6.1-13.4
		c-1.1-4.8-1.2-9.8-0.3-14.7c0.3-1.6,0.7-3.2,1.2-4.7l1-2.9l2.6,1.9c6,4.4,12.8,7.7,20,9.8l2,0.6l-0.2,1.9c-0.2,2.7,0.6,5.3,2.1,7.5
		c1.4,2,3.5,3.6,5.8,4.4c2.4,0.9,4.9,1,7.3,0.4c1.1-0.3,2.2-0.8,3.1-1.4l51.1-32.3c1.3-0.8,2.3-1.8,3.2-3c0.8-1.2,1.4-2.6,1.6-4
		c0.3-1.5,0.2-3-0.1-4.4c-0.3-1.5-1-2.8-1.8-4c-1.4-2-3.5-3.6-5.8-4.4c-2.4-0.9-4.9-1-7.3-0.4c-1.1,0.3-2.2,0.8-3.1,1.4l-19.6,12.3
		c-3.2,2-6.7,3.5-10.4,4.5c-8,2.1-16.5,1.6-24.3-1.2c-7.8-2.9-14.5-8-19.3-14.8c-2.9-4-5-8.6-6.1-13.4c-1.1-4.8-1.2-9.8-0.3-14.7
		c0.9-4.8,2.7-9.3,5.5-13.4c2.7-4,6.3-7.5,10.5-10l51.3-32.3c3.2-2,6.7-3.5,10.3-4.5c8.1-2.1,16.6-1.6,24.4,1.2
		c7.8,2.9,14.5,8,19.3,14.8c2.9,4,5,8.6,6.1,13.4c1.1,4.8,1.2,9.8,0.3,14.7c-0.3,1.6-0.7,3.2-1.2,4.7l-1,2.9l-2.6-1.9
		c-6.1-4.4-12.8-7.7-20-9.9l-2-0.6l0.2-1.9c0.2-2.7-0.5-5.3-2.1-7.5c-1.4-2-3.5-3.5-5.8-4.4c-2.3-0.8-4.9-0.9-7.3-0.3
		c-1.1,0.3-2.2,0.8-3.1,1.4l-51.2,32.2c-1.3,0.8-2.3,1.8-3.2,3c-0.8,1.2-1.4,2.6-1.7,4c-0.3,1.5-0.2,3,0.1,4.4
		c0.3,1.5,1,2.8,1.8,4.1c1.4,2,3.4,3.6,5.8,4.4s4.9,1,7.3,0.4c1.1-0.3,2.2-0.8,3.1-1.4l19.6-12.3c3.2-2,6.7-3.6,10.4-4.5
		c8.1-2.1,16.6-1.7,24.4,1.2c7.8,2.9,14.5,8,19.3,14.8c2.9,4,5,8.6,6.1,13.4c1.1,4.8,1.2,9.8,0.3,14.7c-0.9,4.8-2.7,9.3-5.5,13.4
		c-2.7,4-6.3,7.5-10.5,10l-51.2,32.3C188.7,282.3,185.2,283.9,181.5,284.8z"/></g><g id="Hat"><g id="Hat.brim"><path d="M155.3,92.4c3.9-1,11.6,0.1,17.4,2.7l-2,11.8c0,0-9.4-3.5-12.6-7.9c-0.9-1.2,1.2-3.8,1.2-3.8s-3.2,0.1-3.5,2.9
			s1.4,5.3,15.2,10.1c13.8,4.7,12.7,10.8,24.1,18.3c12.1,8,21.7,12.5,35.7,19.3s33.1,9.1,41.9,8.5c8.5-0.6,15.7-2.7,20.2-4l4.6-19.8
			l2.1,0.4l0.7-4.2c12.6,2.2,23.4,15,20.8,29.7c-4.1,23.4-31.5,24.2-50.4,21.2c-46.3-8.2-127.7-57.5-124.3-77
			C147.7,93.2,151.4,93.5,155.3,92.4z"/></g><path id="Hat.band" class="st1" d="M172,109.4l3.5-20l119.6,41.7l2.1,0.4c1.4,12.1-4.6,19.8-4.6,19.8c-18.9,8.6-50.1,1.1-62.2-4.5
		C209.7,137.3,185.1,121.5,172,109.4z"/><path id="Hat.top" d="M181.3,68.8c-6.1,16.3-6.7,25.9-6.7,25.9c7.1,8.9,42,33.5,74.5,39.2c22.1,3.9,36,5.3,48-1.3l1.3-7.4l4.5-25.3
		c4.8-27.4-30.7-47.7-44.3-50.2c-7.3-1.7-18.9-3.3-27.4-4.8C202.7,40,187.5,52.5,181.3,68.8z"/><path id="Hat.highlight" class="st0" d="M302.6,163.5c17-4.5,18.7-16.5,16.7-21.6c4.1,7.2,0.6,20.2-18.1,25.1
		c-12.5,3.3-39,1.9-89.6-30C247.6,157.1,278.2,170,302.6,163.5z"/></g></svg>
